<svg xmlns="http://www.w3.org/2000/svg" width="256" height="256" viewBox="6.89 12.31 216.83 216.83">
  <g transform="rotate(73 128 128)"><path d="M 78.70 19.25 C 78.30 19.63, 77.08 20.77, 76.29 21.55 C 75.49 22.34, 74.70 23.14, 73.93 23.96 C 73.15 24.78, 72.38 25.61, 71.62 26.46 C 70.86 27.31, 70.11 28.18, 69.37 29.06 C 68.63 29.95, 67.90 30.84, 67.18 31.76 C 66.46 32.67, 65.75 33.60, 65.05 34.54 C 64.35 35.49, 63.66 36.44, 62.99 37.42 C 62.31 38.39, 61.64 39.37, 60.99 40.37 C 60.34 41.37, 59.69 42.38, 59.06 43.41 C 58.43 44.43, 57.81 45.47, 57.21 46.52 C 56.60 47.57, 56.00 48.64, 55.42 49.71 C 54.84 50.79, 54.27 51.87, 53.71 52.97 C 53.16 54.07, 52.61 55.18, 52.08 56.30 C 51.55 57.42, 51.03 58.55, 50.52 59.69 C 50.02 60.82, 49.53 61.97, 49.05 63.13 C 48.57 64.29, 48.10 65.46, 47.65 66.64 C 47.20 67.81, 46.76 69.00, 46.33 70.19 C 45.91 71.39, 45.50 72.59, 45.10 73.80 C 44.71 75.01, 44.32 76.22, 43.95 77.45 C 43.59 78.67, 43.23 79.90, 42.89 81.14 C 42.55 82.37, 42.22 83.61, 41.91 84.86 C 41.60 86.11, 41.30 87.36, 41.02 88.62 C 40.74 89.88, 40.47 91.14, 40.21 92.41 C 39.96 93.68, 39.72 94.95, 39.50 96.22 C 39.27 97.50, 39.06 98.77, 38.87 100.06 C 38.67 101.34, 38.49 102.62, 38.32 103.91 C 38.16 105.19, 38.01 106.48, 37.87 107.77 C 37.74 109.06, 37.61 110.36, 37.51 111.65 C 37.40 112.94, 37.31 114.23, 37.23 115.53 C 37.16 116.82, 37.09 118.12, 37.05 119.41 C 37.00 120.70, 36.97 122.00, 36.95 123.29 C 36.93 124.58, 36.93 125.88, 36.94 127.17 C 36.95 128.46, 36.98 129.75, 37.02 131.03 C 37.06 132.32, 37.12 133.60, 37.19 134.89 C 37.26 136.17, 37.35 137.45, 37.45 138.72 C 37.55 140.00, 37.66 141.27, 37.79 142.54 C 37.92 143.81, 38.06 145.07, 38.22 146.33 C 38.38 147.59, 38.55 148.84, 38.74 150.09 C 38.93 151.34, 39.13 152.59, 39.34 153.83 C 39.56 155.06, 39.79 156.30, 40.03 157.52 C 40.28 158.75, 40.53 159.97, 40.80 161.18 C 41.08 162.40, 41.36 163.60, 41.66 164.80 C 41.96 166.00, 42.27 167.19, 42.60 168.38 C 42.93 169.56, 43.27 170.74, 43.62 171.90 C 43.97 173.07, 44.34 174.23, 44.72 175.38 C 45.10 176.53, 45.49 177.67, 45.90 178.80 C 46.30 179.93, 46.72 181.05, 47.16 182.16 C 47.59 183.27, 48.03 184.37, 48.49 185.46 C 48.95 186.55, 49.42 187.63, 49.90 188.70 C 50.38 189.77, 50.88 190.82, 51.39 191.87 C 51.89 192.91, 52.41 193.95, 52.94 194.97 C 53.47 195.99, 54.02 197.00, 54.57 198.00 C 55.13 198.99, 55.69 199.98, 56.27 200.95 C 56.85 201.92, 57.44 202.88, 58.04 203.83 C 58.64 204.77, 59.25 205.70, 59.88 206.62 C 60.50 207.54, 61.13 208.44, 61.78 209.33 C 62.42 210.22, 63.08 211.10, 63.74 211.96 C 64.41 212.82, 65.08 213.66, 65.77 214.50 C 66.45 215.33, 67.15 216.14, 67.85 216.94 C 68.56 217.74, 69.27 218.53, 70.00 219.29 C 70.72 220.06, 71.46 220.81, 72.20 221.55 C 72.94 222.29, 73.70 223.00, 74.46 223.71 C 75.22 224.41, 75.99 225.10, 76.77 225.76 C 77.54 226.43, 78.33 227.08, 79.12 227.72 C 79.92 228.35, 80.72 228.97, 81.53 229.57 C 82.34 230.17, 83.16 230.75, 83.98 231.31 C 84.81 231.87, 85.64 232.42, 86.48 232.94 C 87.32 233.47, 88.16 233.97, 89.01 234.46 C 89.86 234.95, 90.72 235.42, 91.59 235.87 C 92.45 236.32, 93.32 236.75, 94.19 237.16 C 95.07 237.57, 95.95 237.96, 96.83 238.33 C 97.72 238.70, 98.61 239.05, 99.50 239.39 C 100.39 239.72, 101.29 240.03, 102.19 240.32 C 103.09 240.61, 104.00 240.88, 104.90 241.13 C 105.81 241.38, 106.72 241.61, 107.63 241.82 C 108.54 242.04, 109.46 242.23, 110.38 242.40 C 111.29 242.57, 112.21 242.72, 113.13 242.85 C 114.05 242.98, 114.97 243.09, 115.89 243.18 C 116.81 243.27, 117.73 243.34, 118.65 243.39 C 119.57 243.44, 120.49 243.47, 121.41 243.47 C 122.32 243.48, 123.24 243.47, 124.16 243.44 C 125.08 243.41, 125.99 243.36, 126.91 243.29 C 127.82 243.21, 128.73 243.12, 129.64 243.01 C 130.55 242.90, 131.45 242.77, 132.36 242.62 C 133.26 242.47, 134.16 242.30, 135.05 242.11 C 135.95 241.92, 136.84 241.71, 137.73 241.49 C 138.62 241.26, 139.50 241.01, 140.38 240.75 C 141.26 240.48, 142.13 240.20, 143.00 239.90 C 143.87 239.59, 144.73 239.27, 145.59 238.93 C 146.44 238.60, 147.29 238.24, 148.14 237.86 C 148.98 237.49, 149.82 237.10, 150.65 236.69 C 151.49 236.28, 152.31 235.85, 153.13 235.41 C 153.95 234.97, 154.76 234.51, 155.56 234.03 C 156.36 233.56, 157.16 233.06, 157.95 232.56 C 158.74 232.05, 159.52 231.52, 160.29 230.98 C 161.06 230.44, 161.83 229.89, 162.58 229.32 C 163.34 228.75, 164.08 228.16, 164.82 227.56 C 165.56 226.96, 166.29 226.35, 167.01 225.72 C 167.73 225.09, 168.44 224.45, 169.15 223.79 C 169.85 223.13, 170.54 222.46, 171.23 221.78 C 171.91 221.10, 172.59 220.40, 173.25 219.69 C 173.92 218.98, 174.57 218.26, 175.22 217.52 C 175.86 216.79, 176.50 216.04, 177.12 215.28 C 177.75 214.53, 178.36 213.75, 178.97 212.97 C 179.57 212.19, 180.17 211.40, 180.75 210.59 C 181.34 209.79, 181.91 208.97, 182.48 208.15 C 183.04 207.32, 183.59 206.49, 184.13 205.64 C 184.68 204.80, 185.21 203.94, 185.73 203.08 C 186.25 202.21, 186.76 201.34, 187.26 200.45 C 187.76 199.57, 188.24 198.68, 188.72 197.77 C 189.20 196.87, 189.66 195.96, 190.12 195.05 C 190.57 194.13, 191.01 193.20, 191.45 192.27 C 191.88 191.34, 192.30 190.39, 192.71 189.45 C 193.12 188.50, 193.51 187.54, 193.90 186.58 C 194.28 185.62, 194.66 184.65, 195.02 183.68 C 195.38 182.70, 195.74 181.72, 196.08 180.74 C 196.42 179.75, 196.74 178.76, 197.06 177.76 C 197.38 176.77, 197.68 175.76, 197.97 174.76 C 198.26 173.75, 198.55 172.74, 198.81 171.72 C 199.08 170.71, 199.34 169.69, 199.59 168.67 C 199.83 167.64, 200.06 166.62, 200.29 165.59 C 200.51 164.56, 200.72 163.52, 200.91 162.49 C 201.11 161.45, 201.30 160.41, 201.47 159.37 C 201.64 158.33, 201.81 157.29, 201.96 156.24 C 202.11 155.20, 202.24 154.15, 202.37 153.10 C 202.50 152.06, 202.61 151.01, 202.71 149.96 C 202.81 148.91, 202.90 147.86, 202.98 146.81 C 203.06 145.76, 203.13 144.71, 203.18 143.66 C 203.24 142.61, 203.28 141.56, 203.31 140.51 C 203.34 139.46, 203.36 138.41, 203.37 137.36 C 203.38 136.32, 203.37 135.27, 203.36 134.22 C 203.34 133.18, 203.31 132.14, 203.27 131.10 C 203.23 130.06, 203.18 129.02, 203.12 127.98 C 203.06 126.94, 202.98 125.91, 202.90 124.88 C 202.81 123.85, 202.71 122.82, 202.61 121.80 C 202.50 120.78, 202.38 119.76, 202.25 118.74 C 202.12 117.72, 201.97 116.71, 201.82 115.70 C 201.67 114.69, 201.50 113.69, 201.33 112.69 C 201.15 111.69, 200.97 110.70, 200.77 109.71 C 200.57 108.72, 200.36 107.74, 200.14 106.76 C 199.92 105.78, 199.69 104.81, 199.45 103.85 C 199.21 102.88, 198.96 101.92, 198.70 100.97 C 198.44 100.01, 198.17 99.07, 197.88 98.13 C 197.60 97.19, 197.31 96.26, 197.01 95.33 C 196.70 94.40, 196.39 93.49, 196.07 92.58 C 195.74 91.66, 195.41 90.76, 195.07 89.87 C 194.73 88.97, 194.37 88.08, 194.01 87.21 C 193.65 86.33, 193.28 85.46, 192.89 84.60 C 192.51 83.74, 192.12 82.88, 191.72 82.04 C 191.32 81.20, 190.91 80.36, 190.49 79.54 C 190.07 78.71, 189.64 77.90, 189.21 77.09 C 188.77 76.29, 188.33 75.49, 187.87 74.71 C 187.42 73.92, 186.95 73.14, 186.48 72.38 C 186.01 71.62, 185.53 70.86, 185.04 70.12 C 184.55 69.37, 184.05 68.64, 183.55 67.92 C 183.04 67.20, 182.53 66.49, 182.01 65.79 C 181.49 65.09, 180.96 64.40, 180.42 63.72 C 179.89 63.05, 179.34 62.38, 178.79 61.73 C 178.24 61.08, 177.68 60.44, 177.11 59.81 C 176.55 59.18, 175.97 58.57, 175.39 57.96 C 174.81 57.36, 174.22 56.77, 173.63 56.19 C 173.04 55.61, 172.43 55.05, 171.83 54.50 C 171.22 53.94, 170.61 53.41, 169.98 52.88 C 169.36 52.35, 168.74 51.84, 168.11 51.34 C 167.47 50.85, 166.84 50.36, 166.19 49.89 C 165.55 49.42, 164.90 48.96, 164.24 48.52 C 163.59 48.08, 162.93 47.65, 162.26 47.23 C 161.60 46.82, 160.93 46.42, 160.25 46.03 C 159.58 45.65, 158.90 45.28, 158.21 44.92 C 157.53 44.57, 156.84 44.23, 156.15 43.90 C 155.46 43.58, 154.76 43.27, 154.06 42.97 C 153.36 42.68, 152.66 42.40, 151.95 42.13 C 151.24 41.87, 150.53 41.62, 149.82 41.38 C 149.11 41.15, 148.39 40.93, 147.68 40.73 C 146.96 40.53, 146.24 40.34, 145.52 40.17 C 144.80 40.00, 144.07 39.85, 143.35 39.71 C 142.62 39.57, 141.90 39.45, 141.17 39.35 C 140.45 39.24, 139.72 39.15, 138.99 39.08 C 138.26 39.00, 137.54 38.94, 136.81 38.90 C 136.08 38.86, 135.35 38.84, 134.63 38.83 C 133.90 38.82, 133.18 38.82, 132.45 38.84 C 131.73 38.87, 131.00 38.91, 130.28 38.96 C 129.56 39.01, 128.84 39.08, 128.13 39.17 C 127.41 39.25, 126.70 39.35, 125.98 39.47 C 125.27 39.59, 124.56 39.72, 123.86 39.87 C 123.15 40.01, 122.45 40.18, 121.75 40.35 C 121.05 40.53, 120.36 40.72, 119.67 40.93 C 118.98 41.14, 118.29 41.36, 117.61 41.59 C 116.93 41.83, 116.25 42.08, 115.58 42.34 C 114.91 42.61, 114.24 42.89, 113.58 43.18 C 112.92 43.47, 112.26 43.78, 111.61 44.09 C 110.96 44.41, 110.32 44.75, 109.68 45.09 C 109.04 45.43, 108.41 45.79, 107.78 46.16 C 107.16 46.53, 106.54 46.92, 105.93 47.31 C 105.31 47.71, 104.71 48.11, 104.11 48.53 C 103.51 48.95, 102.91 49.38, 102.33 49.82 C 101.74 50.27, 101.16 50.72, 100.59 51.19 C 100.02 51.65, 99.45 52.13, 98.90 52.61 C 98.34 53.10, 97.79 53.59, 97.25 54.10 C 96.71 54.61, 96.17 55.13, 95.64 55.65 C 95.12 56.18, 94.60 56.72, 94.09 57.26 C 93.58 57.81, 93.07 58.36, 92.58 58.93 C 92.08 59.49, 91.59 60.07, 91.11 60.65 C 90.64 61.23, 90.16 61.82, 89.70 62.42 C 89.24 63.02, 88.78 63.63, 88.34 64.24 C 87.89 64.86, 87.45 65.48, 87.02 66.11 C 86.59 66.75, 86.17 67.38, 85.76 68.03 C 85.35 68.68, 84.94 69.33, 84.55 69.99 C 84.15 70.65, 83.77 71.31, 83.39 71.99 C 83.01 72.66, 82.64 73.34, 82.28 74.02 C 81.92 74.71, 81.57 75.40, 81.22 76.10 C 80.88 76.79, 80.55 77.50, 80.22 78.20 C 79.89 78.91, 79.58 79.63, 79.27 80.34 C 78.96 81.06, 78.66 81.78, 78.37 82.51 C 78.08 83.24, 77.80 83.97, 77.53 84.71 C 77.26 85.44, 77.00 86.18, 76.74 86.93 C 76.49 87.67, 76.24 88.42, 76.01 89.17 C 75.77 89.92, 75.54 90.68, 75.33 91.43 C 75.11 92.19, 74.90 92.95, 74.70 93.72 C 74.50 94.48, 74.31 95.24, 74.13 96.01 C 73.95 96.78, 73.77 97.55, 73.61 98.32 C 73.45 99.10, 73.29 99.87, 73.15 100.65 C 73.00 101.42, 72.87 102.20, 72.74 102.98 C 72.61 103.76, 72.49 104.54, 72.38 105.32 C 72.27 106.10, 72.17 106.88, 72.08 107.66 C 71.99 108.44, 71.91 109.23, 71.84 110.01 C 71.76 110.79, 71.70 111.57, 71.64 112.36 C 71.59 113.14, 71.54 113.92, 71.50 114.70 C 71.47 115.48, 71.44 116.26, 71.42 117.04 C 71.40 117.82, 71.39 118.60, 71.39 119.38 C 71.38 120.16, 71.39 120.93, 71.41 121.71 C 71.42 122.48, 71.45 123.26, 71.48 124.03 C 71.51 124.80, 71.55 125.57, 71.60 126.33 C 71.65 127.10, 71.71 127.87, 71.78 128.63 C 71.85 129.39, 71.92 130.15, 72.01 130.90 C 72.09 131.66, 72.18 132.41, 72.28 133.16 C 72.38 133.91, 72.49 134.66, 72.61 135.40 C 72.73 136.15, 72.85 136.89, 72.99 137.62 C 73.12 138.36, 73.26 139.09, 73.41 139.82 C 73.56 140.54, 73.72 141.27, 73.89 141.99 C 74.05 142.70, 74.22 143.42, 74.41 144.13 C 74.59 144.84, 74.78 145.54, 74.97 146.24 C 75.17 146.94, 75.38 147.63, 75.59 148.32 C 75.80 149.01, 76.02 149.70, 76.25 150.37 C 76.48 151.05, 76.71 151.72, 76.95 152.39 C 77.19 153.06, 77.44 153.72, 77.70 154.37 C 77.96 155.03, 78.22 155.67, 78.49 156.32 C 78.76 156.96, 79.04 157.59, 79.33 158.22 C 79.61 158.85, 79.90 159.47, 80.20 160.09 C 80.50 160.70, 80.81 161.31, 81.12 161.91 C 81.43 162.51, 81.75 163.11, 82.08 163.69 C 82.40 164.28, 82.74 164.86, 83.07 165.43 C 83.41 166.00, 83.76 166.57, 84.11 167.12 C 84.46 167.68, 84.82 168.23, 85.18 168.77 C 85.54 169.31, 85.91 169.84, 86.29 170.36 C 86.67 170.89, 87.05 171.40, 87.43 171.91 C 87.82 172.42, 88.22 172.91, 88.61 173.40 C 89.01 173.89, 89.42 174.37, 89.83 174.85 C 90.24 175.32, 90.65 175.78, 91.08 176.24 C 91.50 176.69, 91.92 177.14, 92.35 177.57 C 92.79 178.01, 93.22 178.43, 93.66 178.85 C 94.11 179.27, 94.55 179.67, 95.01 180.07 C 95.46 180.47, 95.91 180.86, 96.37 181.23 C 96.84 181.61, 97.30 181.98, 97.77 182.34 C 98.24 182.70, 98.72 183.04, 99.20 183.38 C 99.67 183.72, 100.16 184.04, 100.64 184.36 C 101.13 184.68, 101.62 184.98, 102.12 185.28 C 102.61 185.57, 103.11 185.86, 103.61 186.13 C 104.11 186.40, 104.62 186.66, 105.13 186.92 C 105.64 187.17, 106.15 187.41, 106.66 187.64 C 107.18 187.86, 107.70 188.08, 108.22 188.29 C 108.74 188.49, 109.26 188.69, 109.79 188.87 C 110.31 189.05, 110.84 189.22, 111.37 189.38 C 111.90 189.54, 112.43 189.69, 112.96 189.83 C 113.49 189.96, 114.03 190.09, 114.56 190.20 C 115.10 190.31, 115.63 190.41, 116.17 190.50 C 116.71 190.58, 117.24 190.66, 117.78 190.72 C 118.32 190.79, 118.86 190.84, 119.39 190.88 C 119.93 190.92, 120.47 190.95, 121.01 190.96 C 121.54 190.98, 122.08 190.98, 122.62 190.97 C 123.15 190.97, 123.68 190.95, 124.22 190.91 C 124.75 190.88, 125.28 190.84, 125.81 190.78 C 126.34 190.73, 126.87 190.66, 127.39 190.58 C 127.91 190.50, 128.44 190.41, 128.96 190.31 C 129.48 190.21, 129.99 190.10, 130.51 189.98 C 131.02 189.85, 131.53 189.72, 132.04 189.57 C 132.54 189.43, 133.05 189.27, 133.55 189.10 C 134.04 188.94, 134.54 188.76, 135.03 188.57 C 135.52 188.39, 136.01 188.19, 136.49 187.98 C 136.97 187.77, 137.45 187.56, 137.93 187.33 C 138.40 187.10, 138.87 186.87, 139.33 186.62 C 139.80 186.38, 140.25 186.12, 140.71 185.86 C 141.16 185.59, 141.61 185.32, 142.05 185.04 C 142.50 184.76, 142.93 184.47, 143.37 184.17 C 143.80 183.87, 144.22 183.57, 144.65 183.25 C 145.07 182.94, 145.48 182.62, 145.89 182.29 C 146.30 181.96, 146.70 181.62, 147.10 181.28 C 147.50 180.94, 147.89 180.58, 148.28 180.23 C 148.66 179.87, 149.04 179.50, 149.42 179.13 C 149.79 178.76, 150.16 178.38, 150.52 178.00 C 150.88 177.61, 151.24 177.22, 151.59 176.83 C 151.94 176.43, 152.28 176.03, 152.62 175.62 C 152.95 175.21, 153.29 174.80, 153.61 174.38 C 153.93 173.96, 154.25 173.54, 154.56 173.11 C 154.88 172.68, 155.18 172.24, 155.48 171.80 C 155.78 171.36, 156.07 170.92, 156.36 170.47 C 156.64 170.02, 156.92 169.57, 157.20 169.11 C 157.47 168.66, 157.74 168.20, 158.00 167.73 C 158.26 167.27, 158.51 166.80, 158.76 166.33 C 159.01 165.85, 159.25 165.38, 159.49 164.90 C 159.72 164.42, 159.95 163.94, 160.17 163.45 C 160.39 162.96, 160.61 162.48, 160.82 161.98 C 161.03 161.49, 161.23 161.00, 161.43 160.50 C 161.62 160.00, 161.81 159.50, 161.99 159.00 C 162.18 158.50, 162.35 158.00, 162.53 157.49 C 162.70 156.99, 162.86 156.48, 163.02 155.97 C 163.18 155.46, 163.33 154.95, 163.47 154.43 C 163.62 153.92, 163.75 153.41, 163.89 152.89 C 164.02 152.38, 164.14 151.86, 164.26 151.34 C 164.38 150.82, 164.50 150.30, 164.60 149.78 C 164.71 149.26, 164.81 148.74, 164.90 148.22 C 165.00 147.70, 165.09 147.18, 165.17 146.66 C 165.25 146.14, 165.32 145.62, 165.39 145.10 C 165.46 144.57, 165.53 144.05, 165.58 143.53 C 165.64 143.01, 165.69 142.49, 165.73 141.97 C 165.78 141.45, 165.82 140.93, 165.85 140.41 C 165.88 139.89, 165.91 139.37, 165.93 138.85 C 165.95 138.33, 165.96 137.82, 165.97 137.30 C 165.98 136.78, 165.98 136.27, 165.98 135.76 C 165.97 135.24, 165.96 134.73, 165.95 134.22 C 165.93 133.71, 165.91 133.20, 165.88 132.70 C 165.86 132.19, 165.82 131.68, 165.78 131.18 C 165.75 130.68, 165.70 130.18, 165.65 129.68 C 165.60 129.18, 165.55 128.68, 165.48 128.19 C 165.42 127.70, 165.36 127.21, 165.28 126.72 C 165.21 126.23, 165.13 125.74, 165.05 125.26 C 164.97 124.77, 164.88 124.29, 164.78 123.82 C 164.69 123.34, 164.59 122.86, 164.49 122.39 C 164.38 121.92, 164.27 121.45, 164.16 120.99 C 164.04 120.52, 163.92 120.06, 163.79 119.60 C 163.67 119.15, 163.54 118.69, 163.40 118.24 C 163.27 117.79, 163.12 117.34, 162.98 116.90 C 162.83 116.46, 162.68 116.02, 162.52 115.58 C 162.37 115.15, 162.20 114.72, 162.04 114.29 C 161.87 113.87, 161.70 113.44, 161.52 113.03 C 161.35 112.61, 161.16 112.20, 160.98 111.79 C 160.79 111.38, 160.60 110.97, 160.40 110.58 C 160.21 110.18, 160.01 109.78, 159.80 109.39 C 159.60 109.00, 159.39 108.62, 159.17 108.24 C 158.96 107.86, 158.74 107.49, 158.52 107.12 C 158.29 106.75, 158.06 106.39, 157.83 106.03 C 157.60 105.67, 157.36 105.32, 157.12 104.97 C 156.88 104.62, 156.64 104.28, 156.39 103.94 C 156.14 103.61, 155.88 103.28, 155.63 102.95 C 155.37 102.63, 155.11 102.31, 154.84 102.00 C 154.58 101.69, 154.31 101.38, 154.03 101.08 C 153.76 100.78, 153.48 100.49, 153.20 100.20 C 152.92 99.91, 152.64 99.63, 152.35 99.36 C 152.06 99.08, 151.77 98.81, 151.48 98.55 C 151.18 98.29, 150.88 98.04, 150.58 97.79 C 150.28 97.54, 149.97 97.30, 149.66 97.07 C 149.36 96.83, 149.04 96.60, 148.73 96.38 C 148.42 96.16, 148.10 95.95, 147.78 95.75 C 147.46 95.54, 147.14 95.34, 146.81 95.15 C 146.48 94.96, 146.16 94.78, 145.83 94.60 C 145.50 94.43, 145.16 94.26, 144.83 94.10 C 144.49 93.94, 144.15 93.79, 143.82 93.64 C 143.48 93.50, 143.14 93.36, 142.79 93.24 C 142.45 93.11, 142.11 92.99, 141.76 92.88 C 141.42 92.76, 141.07 92.66, 140.72 92.56 C 140.38 92.47, 140.03 92.38, 139.68 92.30 C 139.33 92.22, 138.98 92.15, 138.63 92.09 C 138.28 92.03, 137.93 91.98, 137.58 91.93 C 137.23 91.89, 136.88 91.85, 136.53 91.82 C 136.18 91.79, 135.83 91.78, 135.49 91.76 C 135.14 91.75, 134.79 91.75, 134.45 91.76 C 134.10 91.76, 133.76 91.77, 133.41 91.80 C 133.07 91.82, 132.73 91.85, 132.39 91.89 C 132.06 91.92, 131.72 91.97, 131.39 92.02 C 131.05 92.08, 130.72 92.14, 130.39 92.21 C 130.07 92.28, 129.74 92.36, 129.42 92.44 C 129.10 92.53, 128.78 92.62, 128.46 92.72 C 128.15 92.81, 127.84 92.92, 127.53 93.03 C 127.22 93.15, 126.92 93.27, 126.62 93.39 C 126.32 93.52, 126.02 93.65, 125.73 93.79 C 125.44 93.93, 125.15 94.07, 124.86 94.22 C 124.58 94.37, 124.30 94.53, 124.03 94.69 C 123.75 94.85, 123.48 95.02, 123.22 95.19 C 122.95 95.36, 122.69 95.54, 122.44 95.72 C 122.18 95.91, 121.93 96.09, 121.69 96.29 C 121.44 96.48, 121.20 96.67, 120.96 96.87 C 120.73 97.07, 120.50 97.28, 120.27 97.49 C 120.04 97.70, 119.82 97.91, 119.60 98.12 C 119.39 98.34, 119.18 98.56, 118.97 98.78 C 118.76 99.00, 118.56 99.23, 118.37 99.46 C 118.17 99.69, 117.98 99.92, 117.79 100.16 C 117.60 100.39, 117.42 100.63, 117.24 100.87 C 117.07 101.11, 116.89 101.35, 116.73 101.60 C 116.56 101.84, 116.40 102.09, 116.24 102.34 C 116.08 102.59, 115.93 102.84, 115.78 103.09 C 115.63 103.34, 115.49 103.60, 115.35 103.86 C 115.21 104.11, 115.08 104.37, 114.95 104.63 C 114.82 104.89, 114.69 105.15, 114.57 105.41 C 114.45 105.67, 114.34 105.94, 114.23 106.20 C 114.11 106.46, 114.01 106.73, 113.91 107.00 C 113.80 107.26, 113.71 107.53, 113.61 107.79 C 113.52 108.06, 113.43 108.33, 113.35 108.60 C 113.26 108.87, 113.18 109.13, 113.11 109.40 C 113.03 109.67, 112.96 109.94, 112.89 110.21 C 112.82 110.48, 112.76 110.75, 112.70 111.02 C 112.64 111.29, 112.59 111.55, 112.54 111.82 C 112.49 112.09, 112.44 112.36, 112.40 112.63 C 112.35 112.90, 112.32 113.16, 112.28 113.43 C 112.25 113.70, 112.22 113.96, 112.19 114.23 C 112.16 114.49, 112.14 114.76, 112.12 115.02 C 112.10 115.28, 112.09 115.55, 112.07 115.81 C 112.06 116.07, 112.06 116.33, 112.05 116.59 C 112.05 116.85, 112.05 117.11, 112.05 117.36 C 112.05 117.62, 112.06 117.87, 112.07 118.13 C 112.08 118.38, 112.09 118.63, 112.11 118.88 C 112.13 119.13, 112.15 119.38, 112.17 119.63 C 112.20 119.87, 112.23 120.12, 112.26 120.36 C 112.29 120.60, 112.32 120.85, 112.36 121.08 C 112.40 121.32, 112.44 121.56, 112.48 121.79 C 112.52 122.03, 112.57 122.26, 112.62 122.49 C 112.67 122.72, 112.72 122.95, 112.78 123.17 C 112.83 123.40, 112.89 123.62, 112.95 123.84 C 113.01 124.06, 113.08 124.27, 113.15 124.49 C 113.21 124.70, 113.28 124.92, 113.35 125.12 C 113.43 125.33, 113.50 125.54, 113.58 125.74 C 113.66 125.94, 113.74 126.14, 113.82 126.34 C 113.90 126.54, 113.99 126.73, 114.07 126.92 C 114.16 127.11, 114.25 127.30, 114.34 127.48 C 114.43 127.67, 114.53 127.85, 114.62 128.03 C 114.72 128.20, 114.82 128.38, 114.92 128.55 C 115.02 128.72, 115.12 128.88, 115.22 129.05 C 115.33 129.21, 115.43 129.37, 115.54 129.53 C 115.65 129.68, 115.76 129.83, 115.87 129.98 C 115.98 130.13, 116.09 130.28, 116.20 130.42 C 116.32 130.56, 116.43 130.69, 116.55 130.83 C 116.67 130.96, 116.78 131.09, 116.90 131.21 C 117.02 131.34, 117.14 131.46, 117.26 131.58 C 117.38 131.69, 117.51 131.81, 117.63 131.92 C 117.75 132.02, 117.88 132.13, 118.00 132.23 C 118.12 132.33, 118.25 132.43, 118.38 132.52 C 118.50 132.61, 118.63 132.70, 118.75 132.78 C 118.88 132.86, 119.01 132.94, 119.13 133.02 C 119.26 133.09, 119.39 133.16, 119.52 133.23 C 119.64 133.29, 119.77 133.35, 119.90 133.41 C 120.02 133.47, 120.15 133.52, 120.27 133.57 C 120.40 133.62, 120.53 133.66, 120.65 133.70 C 120.77 133.74, 120.90 133.77, 121.02 133.80 C 121.14 133.83, 121.26 133.86, 121.38 133.88 C 121.50 133.90, 121.62 133.92, 121.74 133.93 C 121.86 133.95, 121.97 133.96, 122.09 133.96 C 122.20 133.97, 122.31 133.97, 122.42 133.96 C 122.53 133.96, 122.64 133.95, 122.75 133.94 C 122.85 133.93, 122.95 133.92, 123.05 133.90 C 123.16 133.88, 123.25 133.86, 123.35 133.83 C 123.44 133.81, 123.58 133.76, 123.63 133.75 L 123.63 133.75 C 123.58 133.73, 123.45 133.67, 123.37 133.63 C 123.29 133.58, 123.21 133.53, 123.13 133.48 C 123.05 133.44, 122.97 133.38, 122.89 133.33 C 122.82 133.27, 122.74 133.22, 122.67 133.16 C 122.59 133.10, 122.52 133.04, 122.45 132.98 C 122.38 132.91, 122.31 132.85, 122.25 132.78 C 122.18 132.71, 122.11 132.64, 122.05 132.57 C 121.98 132.50, 121.92 132.42, 121.86 132.35 C 121.80 132.27, 121.74 132.19, 121.68 132.12 C 121.62 132.04, 121.56 131.95, 121.50 131.87 C 121.45 131.79, 121.39 131.70, 121.34 131.61 C 121.28 131.52, 121.23 131.43, 121.17 131.34 C 121.12 131.25, 121.07 131.15, 121.02 131.06 C 120.97 130.96, 120.92 130.86, 120.87 130.76 C 120.83 130.66, 120.78 130.56, 120.73 130.46 C 120.69 130.35, 120.64 130.25, 120.60 130.14 C 120.56 130.03, 120.52 129.92, 120.48 129.81 C 120.43 129.69, 120.39 129.58, 120.36 129.46 C 120.32 129.35, 120.28 129.23, 120.24 129.11 C 120.21 128.99, 120.17 128.86, 120.14 128.74 C 120.11 128.61, 120.07 128.49, 120.04 128.36 C 120.01 128.23, 119.98 128.10, 119.96 127.97 C 119.93 127.83, 119.90 127.70, 119.88 127.56 C 119.85 127.42, 119.83 127.29, 119.80 127.15 C 119.78 127.01, 119.76 126.86, 119.74 126.72 C 119.72 126.57, 119.71 126.43, 119.69 126.28 C 119.67 126.13, 119.66 125.98, 119.65 125.83 C 119.63 125.68, 119.62 125.53, 119.61 125.37 C 119.60 125.22, 119.60 125.06, 119.59 124.91 C 119.59 124.75, 119.58 124.59, 119.58 124.43 C 119.58 124.27, 119.58 124.11, 119.58 123.94 C 119.58 123.78, 119.59 123.62, 119.59 123.45 C 119.60 123.29, 119.60 123.12, 119.61 122.95 C 119.62 122.78, 119.64 122.61, 119.65 122.44 C 119.66 122.27, 119.68 122.10, 119.70 121.93 C 119.71 121.76, 119.73 121.58, 119.76 121.41 C 119.78 121.24, 119.80 121.06, 119.83 120.89 C 119.86 120.71, 119.88 120.54, 119.91 120.36 C 119.95 120.19, 119.98 120.01, 120.01 119.83 C 120.05 119.65, 120.09 119.48, 120.13 119.30 C 120.16 119.12, 120.21 118.94, 120.25 118.77 C 120.29 118.59, 120.34 118.41, 120.39 118.23 C 120.44 118.05, 120.49 117.88, 120.54 117.70 C 120.60 117.52, 120.65 117.34, 120.71 117.17 C 120.77 116.99, 120.83 116.81, 120.89 116.64 C 120.95 116.46, 121.01 116.29, 121.08 116.11 C 121.15 115.94, 121.22 115.76, 121.29 115.59 C 121.36 115.42, 121.43 115.25, 121.51 115.07 C 121.58 114.90, 121.66 114.73, 121.74 114.56 C 121.82 114.40, 121.90 114.23, 121.98 114.06 C 122.07 113.89, 122.15 113.73, 122.24 113.57 C 122.33 113.40, 122.42 113.24, 122.51 113.08 C 122.60 112.92, 122.70 112.76, 122.79 112.60 C 122.89 112.45, 122.98 112.29, 123.08 112.14 C 123.18 111.99, 123.28 111.84, 123.39 111.69 C 123.49 111.54, 123.60 111.39, 123.70 111.25 C 123.81 111.10, 123.92 110.96, 124.03 110.82 C 124.13 110.68, 124.25 110.54, 124.36 110.41 C 124.47 110.27, 124.58 110.14, 124.70 110.01 C 124.81 109.88, 124.93 109.75, 125.05 109.63 C 125.17 109.51, 125.29 109.38, 125.41 109.27 C 125.53 109.15, 125.65 109.03, 125.77 108.92 C 125.89 108.81, 126.01 108.70, 126.14 108.59 C 126.26 108.49, 126.39 108.38, 126.51 108.28 C 126.64 108.18, 126.76 108.09, 126.89 107.99 C 127.01 107.90, 127.14 107.81, 127.27 107.72 C 127.40 107.63, 127.52 107.55, 127.65 107.47 C 127.78 107.39, 127.91 107.31, 128.04 107.24 C 128.16 107.16, 128.29 107.09, 128.42 107.02 C 128.55 106.96, 128.68 106.89, 128.81 106.83 C 128.93 106.77, 129.06 106.71, 129.19 106.66 C 129.32 106.60, 129.45 106.55, 129.57 106.50 C 129.70 106.45, 129.83 106.41, 129.95 106.37 C 130.08 106.33, 130.21 106.29, 130.33 106.25 C 130.46 106.22, 130.59 106.18, 130.71 106.15 C 130.84 106.12, 130.96 106.10, 131.08 106.07 C 131.21 106.05, 131.33 106.03, 131.46 106.01 C 131.58 105.99, 131.70 105.98, 131.83 105.97 C 131.95 105.95, 132.07 105.94, 132.19 105.94 C 132.31 105.93, 132.44 105.93, 132.56 105.92 C 132.68 105.92, 132.80 105.92, 132.92 105.93 C 133.04 105.93, 133.17 105.94, 133.29 105.95 C 133.41 105.96, 133.53 105.97, 133.65 105.98 C 133.77 106.00, 133.89 106.01, 134.02 106.03 C 134.14 106.05, 134.26 106.07, 134.38 106.10 C 134.51 106.12, 134.63 106.15, 134.76 106.18 C 134.88 106.21, 135.00 106.24, 135.13 106.28 C 135.25 106.32, 135.38 106.36, 135.51 106.40 C 135.64 106.44, 135.76 106.48, 135.89 106.53 C 136.02 106.58, 136.15 106.63, 136.28 106.69 C 136.41 106.74, 136.54 106.80, 136.68 106.86 C 136.81 106.93, 136.94 106.99, 137.08 107.06 C 137.21 107.13, 137.35 107.20, 137.48 107.28 C 137.62 107.36, 137.76 107.44, 137.90 107.52 C 138.04 107.61, 138.18 107.69, 138.32 107.79 C 138.46 107.88, 138.60 107.98, 138.74 108.08 C 138.88 108.18, 139.03 108.29, 139.17 108.40 C 139.32 108.51, 139.46 108.62, 139.61 108.74 C 139.75 108.86, 139.90 108.99, 140.05 109.12 C 140.19 109.24, 140.34 109.38, 140.49 109.52 C 140.64 109.66, 140.78 109.80, 140.93 109.95 C 141.08 110.10, 141.23 110.25, 141.38 110.41 C 141.53 110.57, 141.67 110.73, 141.82 110.90 C 141.97 111.07, 142.12 111.24, 142.27 111.42 C 142.42 111.60, 142.56 111.79, 142.71 111.98 C 142.86 112.17, 143.00 112.36, 143.15 112.56 C 143.30 112.76, 143.44 112.96, 143.59 113.17 C 143.73 113.38, 143.87 113.60, 144.02 113.82 C 144.16 114.04, 144.30 114.27, 144.44 114.50 C 144.58 114.73, 144.72 114.96, 144.86 115.20 C 144.99 115.44, 145.13 115.69, 145.26 115.94 C 145.40 116.19, 145.53 116.45, 145.66 116.71 C 145.79 116.97, 145.92 117.23, 146.05 117.50 C 146.18 117.77, 146.30 118.05, 146.42 118.33 C 146.55 118.61, 146.67 118.89, 146.79 119.18 C 146.90 119.47, 147.02 119.76, 147.13 120.06 C 147.25 120.36, 147.36 120.66, 147.47 120.97 C 147.57 121.27, 147.68 121.58, 147.78 121.90 C 147.88 122.21, 147.98 122.53, 148.08 122.85 C 148.18 123.18, 148.27 123.50, 148.36 123.83 C 148.45 124.16, 148.54 124.50, 148.63 124.84 C 148.71 125.18, 148.79 125.52, 148.87 125.86 C 148.94 126.21, 149.02 126.56, 149.09 126.91 C 149.15 127.26, 149.22 127.62, 149.28 127.97 C 149.34 128.33, 149.40 128.69, 149.46 129.06 C 149.51 129.42, 149.56 129.79, 149.61 130.16 C 149.65 130.53, 149.69 130.90, 149.73 131.28 C 149.77 131.65, 149.80 132.03, 149.83 132.41 C 149.86 132.79, 149.89 133.17, 149.91 133.55 C 149.93 133.94, 149.94 134.32, 149.95 134.71 C 149.97 135.10, 149.97 135.48, 149.98 135.87 C 149.98 136.26, 149.98 136.66, 149.97 137.05 C 149.96 137.44, 149.95 137.83, 149.94 138.23 C 149.92 138.62, 149.90 139.02, 149.88 139.42 C 149.85 139.81, 149.83 140.21, 149.79 140.61 C 149.76 141.00, 149.72 141.40, 149.68 141.80 C 149.63 142.20, 149.58 142.60, 149.53 142.99 C 149.48 143.39, 149.42 143.79, 149.36 144.19 C 149.30 144.58, 149.23 144.98, 149.16 145.38 C 149.09 145.77, 149.01 146.17, 148.93 146.57 C 148.85 146.96, 148.76 147.35, 148.67 147.75 C 148.58 148.14, 148.49 148.53, 148.39 148.92 C 148.29 149.31, 148.18 149.70, 148.07 150.09 C 147.96 150.47, 147.85 150.86, 147.73 151.24 C 147.61 151.62, 147.49 152.00, 147.36 152.38 C 147.24 152.76, 147.10 153.14, 146.97 153.51 C 146.83 153.88, 146.69 154.26, 146.54 154.62 C 146.40 154.99, 146.25 155.36, 146.09 155.72 C 145.94 156.08, 145.78 156.44, 145.62 156.80 C 145.46 157.15, 145.29 157.51, 145.12 157.86 C 144.95 158.21, 144.77 158.55, 144.59 158.89 C 144.41 159.24, 144.23 159.57, 144.04 159.91 C 143.86 160.24, 143.66 160.57, 143.47 160.90 C 143.27 161.22, 143.08 161.54, 142.87 161.86 C 142.67 162.18, 142.47 162.49, 142.26 162.80 C 142.05 163.10, 141.83 163.41, 141.62 163.70 C 141.40 164.00, 141.18 164.30, 140.96 164.58 C 140.74 164.87, 140.51 165.15, 140.28 165.43 C 140.05 165.71, 139.82 165.98, 139.58 166.25 C 139.35 166.51, 139.11 166.78, 138.87 167.03 C 138.63 167.29, 138.39 167.54, 138.14 167.78 C 137.90 168.02, 137.65 168.26, 137.40 168.50 C 137.15 168.73, 136.89 168.95, 136.64 169.18 C 136.38 169.40, 136.13 169.61, 135.87 169.82 C 135.61 170.03, 135.35 170.23, 135.08 170.43 C 134.82 170.62, 134.55 170.81, 134.29 171.00 C 134.02 171.18, 133.75 171.36, 133.48 171.53 C 133.21 171.70, 132.94 171.86, 132.67 172.02 C 132.40 172.18, 132.12 172.33, 131.85 172.48 C 131.57 172.63, 131.29 172.77, 131.01 172.90 C 130.74 173.03, 130.46 173.16, 130.18 173.28 C 129.90 173.40, 129.62 173.51, 129.33 173.62 C 129.05 173.73, 128.77 173.83, 128.48 173.93 C 128.20 174.02, 127.91 174.11, 127.63 174.19 C 127.34 174.27, 127.05 174.35, 126.76 174.42 C 126.48 174.49, 126.19 174.55, 125.90 174.61 C 125.61 174.66, 125.31 174.71, 125.02 174.76 C 124.73 174.80, 124.44 174.84, 124.14 174.87 C 123.85 174.90, 123.56 174.92, 123.26 174.94 C 122.97 174.96, 122.67 174.97, 122.37 174.98 C 122.07 174.98, 121.78 174.98, 121.48 174.97 C 121.18 174.96, 120.88 174.95, 120.58 174.92 C 120.27 174.90, 119.97 174.87, 119.67 174.84 C 119.36 174.80, 119.06 174.76, 118.75 174.71 C 118.45 174.66, 118.14 174.60, 117.84 174.54 C 117.53 174.47, 117.22 174.40, 116.91 174.32 C 116.60 174.24, 116.29 174.16, 115.98 174.06 C 115.67 173.97, 115.36 173.87, 115.04 173.76 C 114.73 173.65, 114.42 173.53, 114.10 173.41 C 113.79 173.29, 113.47 173.15, 113.16 173.01 C 112.84 172.87, 112.53 172.73, 112.21 172.57 C 111.89 172.41, 111.58 172.25, 111.26 172.08 C 110.94 171.90, 110.63 171.72, 110.31 171.53 C 109.99 171.34, 109.67 171.15, 109.36 170.94 C 109.04 170.74, 108.72 170.52, 108.41 170.30 C 108.09 170.08, 107.77 169.84, 107.46 169.60 C 107.14 169.36, 106.83 169.12, 106.52 168.86 C 106.20 168.60, 105.89 168.34, 105.58 168.06 C 105.27 167.79, 104.95 167.50, 104.65 167.21 C 104.34 166.92, 104.03 166.62, 103.72 166.31 C 103.42 166.00, 103.11 165.68, 102.81 165.36 C 102.51 165.03, 102.21 164.70, 101.91 164.35 C 101.61 164.01, 101.31 163.66, 101.02 163.30 C 100.73 162.94, 100.44 162.57, 100.15 162.19 C 99.86 161.82, 99.57 161.43, 99.29 161.04 C 99.01 160.64, 98.73 160.24, 98.45 159.83 C 98.18 159.42, 97.91 159.00, 97.64 158.58 C 97.37 158.15, 97.10 157.72, 96.84 157.28 C 96.58 156.83, 96.32 156.38, 96.07 155.93 C 95.81 155.47, 95.56 155.01, 95.32 154.53 C 95.07 154.06, 94.83 153.58, 94.59 153.10 C 94.36 152.61, 94.13 152.11, 93.90 151.61 C 93.67 151.11, 93.45 150.61, 93.23 150.09 C 93.02 149.58, 92.80 149.06, 92.60 148.53 C 92.39 148.00, 92.19 147.47, 91.99 146.93 C 91.79 146.39, 91.60 145.84, 91.42 145.29 C 91.23 144.73, 91.05 144.17, 90.88 143.61 C 90.70 143.05, 90.54 142.48, 90.37 141.90 C 90.21 141.33, 90.06 140.75, 89.91 140.16 C 89.76 139.57, 89.61 138.98, 89.48 138.39 C 89.34 137.79, 89.21 137.19, 89.08 136.59 C 88.96 135.98, 88.84 135.37, 88.73 134.76 C 88.62 134.15, 88.51 133.53, 88.41 132.91 C 88.32 132.29, 88.22 131.66, 88.14 131.03 C 88.06 130.41, 87.98 129.77, 87.91 129.14 C 87.84 128.50, 87.77 127.87, 87.72 127.22 C 87.66 126.58, 87.61 125.94, 87.57 125.29 C 87.53 124.65, 87.49 124.00, 87.46 123.35 C 87.44 122.70, 87.42 122.05, 87.40 121.39 C 87.39 120.74, 87.38 120.08, 87.39 119.42 C 87.39 118.77, 87.40 118.11, 87.41 117.45 C 87.43 116.79, 87.45 116.13, 87.49 115.47 C 87.52 114.81, 87.56 114.14, 87.60 113.48 C 87.65 112.82, 87.70 112.16, 87.77 111.50 C 87.83 110.84, 87.90 110.17, 87.98 109.51 C 88.05 108.85, 88.14 108.19, 88.23 107.53 C 88.32 106.87, 88.42 106.22, 88.53 105.56 C 88.64 104.90, 88.75 104.25, 88.87 103.59 C 89.00 102.94, 89.13 102.29, 89.26 101.64 C 89.40 100.99, 89.55 100.34, 89.70 99.69 C 89.85 99.05, 90.01 98.41, 90.18 97.77 C 90.35 97.13, 90.52 96.49, 90.70 95.86 C 90.88 95.22, 91.07 94.59, 91.27 93.97 C 91.47 93.34, 91.67 92.72, 91.88 92.10 C 92.09 91.48, 92.31 90.86, 92.54 90.25 C 92.76 89.64, 93.00 89.04, 93.24 88.44 C 93.48 87.84, 93.72 87.24, 93.98 86.65 C 94.23 86.06, 94.49 85.47, 94.76 84.89 C 95.02 84.31, 95.30 83.74, 95.58 83.17 C 95.86 82.60, 96.14 82.04, 96.44 81.48 C 96.73 80.92, 97.03 80.37, 97.34 79.83 C 97.64 79.28, 97.95 78.75, 98.27 78.22 C 98.59 77.69, 98.91 77.16, 99.24 76.65 C 99.57 76.13, 99.91 75.62, 100.25 75.12 C 100.59 74.62, 100.94 74.12, 101.29 73.64 C 101.64 73.15, 102.00 72.67, 102.36 72.20 C 102.73 71.73, 103.10 71.27, 103.47 70.82 C 103.84 70.36, 104.22 69.92, 104.60 69.48 C 104.99 69.04, 105.38 68.62, 105.77 68.20 C 106.16 67.78, 106.56 67.37, 106.96 66.97 C 107.36 66.56, 107.76 66.17, 108.17 65.79 C 108.58 65.41, 109.00 65.03, 109.41 64.67 C 109.83 64.30, 110.25 63.95, 110.68 63.60 C 111.10 63.26, 111.53 62.92, 111.96 62.60 C 112.39 62.27, 112.83 61.96, 113.27 61.65 C 113.71 61.34, 114.15 61.05, 114.59 60.76 C 115.03 60.48, 115.48 60.20, 115.93 59.93 C 116.38 59.67, 116.83 59.41, 117.29 59.17 C 117.74 58.92, 118.20 58.69, 118.66 58.46 C 119.12 58.24, 119.58 58.02, 120.04 57.82 C 120.50 57.61, 120.97 57.42, 121.44 57.23 C 121.90 57.05, 122.37 56.88, 122.84 56.71 C 123.31 56.55, 123.79 56.40, 124.26 56.26 C 124.74 56.11, 125.21 55.98, 125.69 55.86 C 126.17 55.74, 126.64 55.63, 127.12 55.53 C 127.60 55.43, 128.09 55.34, 128.57 55.26 C 129.05 55.18, 129.53 55.11, 130.02 55.06 C 130.50 55.00, 130.99 54.95, 131.48 54.91 C 131.97 54.88, 132.45 54.85, 132.94 54.84 C 133.43 54.82, 133.92 54.82, 134.42 54.82 C 134.91 54.83, 135.40 54.85, 135.89 54.88 C 136.39 54.90, 136.88 54.94, 137.37 54.99 C 137.87 55.04, 138.36 55.11, 138.86 55.18 C 139.36 55.25, 139.85 55.33, 140.35 55.43 C 140.85 55.52, 141.35 55.63, 141.85 55.75 C 142.34 55.87, 142.84 55.99, 143.34 56.13 C 143.84 56.27, 144.34 56.43, 144.84 56.59 C 145.34 56.75, 145.84 56.93, 146.34 57.12 C 146.84 57.30, 147.34 57.50, 147.84 57.71 C 148.34 57.92, 148.84 58.15, 149.34 58.38 C 149.84 58.61, 150.33 58.86, 150.83 59.12 C 151.33 59.38, 151.83 59.65, 152.32 59.93 C 152.82 60.21, 153.31 60.51, 153.81 60.82 C 154.30 61.12, 154.79 61.44, 155.28 61.77 C 155.77 62.11, 156.26 62.45, 156.75 62.81 C 157.23 63.16, 157.72 63.53, 158.20 63.91 C 158.68 64.29, 159.16 64.68, 159.64 65.09 C 160.12 65.49, 160.60 65.91, 161.07 66.34 C 161.54 66.77, 162.01 67.21, 162.48 67.66 C 162.94 68.12, 163.40 68.58, 163.86 69.06 C 164.32 69.54, 164.78 70.02, 165.23 70.53 C 165.68 71.03, 166.13 71.54, 166.57 72.06 C 167.02 72.59, 167.46 73.12, 167.89 73.67 C 168.33 74.22, 168.76 74.78, 169.18 75.35 C 169.61 75.92, 170.03 76.50, 170.44 77.09 C 170.86 77.69, 171.27 78.29, 171.67 78.90 C 172.07 79.52, 172.47 80.14, 172.86 80.78 C 173.26 81.42, 173.64 82.06, 174.02 82.72 C 174.40 83.38, 174.78 84.04, 175.14 84.72 C 175.51 85.40, 175.87 86.09, 176.23 86.78 C 176.58 87.48, 176.93 88.19, 177.27 88.90 C 177.61 89.62, 177.94 90.34, 178.27 91.08 C 178.59 91.81, 178.91 92.56, 179.22 93.31 C 179.53 94.06, 179.83 94.82, 180.13 95.59 C 180.42 96.36, 180.71 97.14, 180.99 97.93 C 181.27 98.71, 181.54 99.50, 181.80 100.31 C 182.06 101.11, 182.32 101.92, 182.56 102.73 C 182.81 103.55, 183.04 104.37, 183.27 105.20 C 183.50 106.03, 183.72 106.87, 183.93 107.71 C 184.14 108.56, 184.34 109.41, 184.53 110.26 C 184.72 111.12, 184.91 111.98, 185.08 112.84 C 185.25 113.71, 185.42 114.58, 185.57 115.46 C 185.72 116.34, 185.87 117.22, 186.00 118.11 C 186.14 119.00, 186.26 119.89, 186.38 120.78 C 186.49 121.68, 186.60 122.58, 186.70 123.48 C 186.79 124.39, 186.88 125.29, 186.95 126.20 C 187.03 127.11, 187.09 128.03, 187.15 128.94 C 187.20 129.86, 187.25 130.78, 187.28 131.70 C 187.32 132.62, 187.34 133.54, 187.36 134.47 C 187.37 135.39, 187.38 136.32, 187.37 137.25 C 187.36 138.18, 187.35 139.11, 187.32 140.04 C 187.29 140.97, 187.25 141.90, 187.20 142.83 C 187.16 143.76, 187.10 144.69, 187.03 145.62 C 186.96 146.55, 186.88 147.48, 186.79 148.41 C 186.70 149.34, 186.60 150.27, 186.48 151.19 C 186.37 152.12, 186.25 153.05, 186.12 153.97 C 185.99 154.89, 185.84 155.82, 185.69 156.74 C 185.54 157.66, 185.37 158.57, 185.20 159.49 C 185.02 160.40, 184.84 161.31, 184.64 162.22 C 184.45 163.13, 184.24 164.04, 184.03 164.94 C 183.81 165.84, 183.58 166.73, 183.35 167.63 C 183.11 168.52, 182.86 169.41, 182.61 170.29 C 182.35 171.17, 182.08 172.05, 181.81 172.93 C 181.53 173.80, 181.24 174.67, 180.95 175.53 C 180.65 176.39, 180.34 177.25, 180.03 178.09 C 179.71 178.94, 179.39 179.79, 179.05 180.62 C 178.71 181.46, 178.37 182.29, 178.02 183.11 C 177.66 183.93, 177.30 184.75, 176.92 185.55 C 176.55 186.36, 176.17 187.16, 175.78 187.95 C 175.39 188.74, 174.99 189.52, 174.58 190.29 C 174.17 191.07, 173.75 191.83, 173.32 192.59 C 172.90 193.34, 172.46 194.09, 172.02 194.83 C 171.58 195.56, 171.12 196.29, 170.66 197.01 C 170.20 197.72, 169.74 198.43, 169.26 199.13 C 168.79 199.82, 168.30 200.51, 167.81 201.19 C 167.32 201.86, 166.82 202.53, 166.32 203.18 C 165.81 203.83, 165.30 204.47, 164.78 205.11 C 164.26 205.74, 163.73 206.36, 163.20 206.96 C 162.66 207.57, 162.12 208.16, 161.58 208.75 C 161.03 209.33, 160.48 209.90, 159.92 210.46 C 159.36 211.02, 158.79 211.57, 158.22 212.10 C 157.65 212.63, 157.08 213.15, 156.50 213.66 C 155.91 214.17, 155.33 214.66, 154.73 215.14 C 154.14 215.62, 153.54 216.09, 152.94 216.55 C 152.34 217.00, 151.73 217.44, 151.12 217.87 C 150.51 218.30, 149.90 218.71, 149.28 219.11 C 148.66 219.51, 148.03 219.90, 147.40 220.27 C 146.78 220.64, 146.14 221.00, 145.51 221.34 C 144.87 221.69, 144.24 222.02, 143.59 222.33 C 142.95 222.65, 142.31 222.95, 141.66 223.24 C 141.01 223.52, 140.36 223.79, 139.71 224.05 C 139.05 224.31, 138.40 224.56, 137.74 224.78 C 137.08 225.01, 136.42 225.23, 135.75 225.43 C 135.09 225.63, 134.43 225.82, 133.76 225.99 C 133.09 226.16, 132.42 226.31, 131.75 226.46 C 131.08 226.60, 130.40 226.73, 129.73 226.84 C 129.05 226.95, 128.38 227.05, 127.70 227.13 C 127.02 227.21, 126.34 227.28, 125.66 227.33 C 124.98 227.39, 124.30 227.43, 123.61 227.45 C 122.93 227.47, 122.25 227.48, 121.56 227.47 C 120.88 227.47, 120.19 227.45, 119.50 227.41 C 118.82 227.37, 118.13 227.32, 117.44 227.25 C 116.75 227.19, 116.06 227.10, 115.37 227.01 C 114.68 226.91, 113.99 226.80, 113.31 226.67 C 112.62 226.54, 111.93 226.40, 111.24 226.24 C 110.55 226.08, 109.86 225.90, 109.17 225.71 C 108.48 225.52, 107.79 225.31, 107.10 225.09 C 106.41 224.87, 105.72 224.63, 105.03 224.38 C 104.34 224.13, 103.66 223.86, 102.97 223.58 C 102.28 223.30, 101.60 223.00, 100.91 222.69 C 100.23 222.38, 99.54 222.05, 98.86 221.70 C 98.18 221.36, 97.50 221.00, 96.82 220.62 C 96.14 220.25, 95.46 219.86, 94.78 219.45 C 94.10 219.04, 93.43 218.62, 92.76 218.18 C 92.09 217.74, 91.42 217.29, 90.75 216.82 C 90.08 216.35, 89.42 215.87, 88.76 215.36 C 88.10 214.86, 87.44 214.35, 86.78 213.81 C 86.13 213.28, 85.47 212.73, 84.83 212.17 C 84.18 211.61, 83.53 211.03, 82.90 210.43 C 82.26 209.84, 81.62 209.23, 80.99 208.60 C 80.36 207.98, 79.73 207.34, 79.11 206.68 C 78.49 206.03, 77.87 205.35, 77.26 204.67 C 76.65 203.98, 76.04 203.28, 75.44 202.57 C 74.85 201.85, 74.25 201.12, 73.66 200.38 C 73.08 199.63, 72.49 198.87, 71.92 198.10 C 71.35 197.32, 70.78 196.53, 70.22 195.73 C 69.66 194.93, 69.10 194.11, 68.55 193.28 C 68.01 192.45, 67.47 191.61, 66.94 190.75 C 66.41 189.90, 65.88 189.03, 65.37 188.14 C 64.85 187.26, 64.34 186.36, 63.85 185.46 C 63.35 184.55, 62.86 183.63, 62.38 182.69 C 61.90 181.76, 61.42 180.81, 60.96 179.85 C 60.50 178.90, 60.04 177.93, 59.60 176.95 C 59.15 175.97, 58.72 174.97, 58.30 173.97 C 57.87 172.97, 57.46 171.95, 57.05 170.93 C 56.65 169.90, 56.25 168.87, 55.87 167.82 C 55.49 166.77, 55.11 165.72, 54.75 164.65 C 54.39 163.59, 54.03 162.51, 53.69 161.43 C 53.35 160.35, 53.02 159.25, 52.71 158.15 C 52.39 157.05, 52.08 155.94, 51.79 154.82 C 51.49 153.71, 51.21 152.58, 50.93 151.45 C 50.66 150.31, 50.40 149.17, 50.15 148.02 C 49.91 146.87, 49.67 145.72, 49.45 144.56 C 49.22 143.40, 49.01 142.23, 48.81 141.06 C 48.61 139.88, 48.43 138.70, 48.25 137.52 C 48.08 136.33, 47.92 135.14, 47.77 133.95 C 47.62 132.75, 47.48 131.55, 47.36 130.35 C 47.24 129.15, 47.13 127.94, 47.03 126.73 C 46.93 125.52, 46.85 124.30, 46.78 123.08 C 46.71 121.87, 46.65 120.65, 46.61 119.42 C 46.56 118.20, 46.53 116.97, 46.51 115.75 C 46.50 114.52, 46.49 113.29, 46.50 112.06 C 46.51 110.83, 46.53 109.60, 46.57 108.37 C 46.61 107.14, 46.66 105.90, 46.72 104.67 C 46.78 103.44, 46.86 102.21, 46.95 100.98 C 47.04 99.75, 47.15 98.51, 47.27 97.29 C 47.38 96.06, 47.52 94.83, 47.66 93.60 C 47.81 92.38, 47.97 91.15, 48.14 89.93 C 48.31 88.71, 48.50 87.49, 48.70 86.27 C 48.90 85.06, 49.11 83.84, 49.34 82.64 C 49.57 81.43, 49.81 80.22, 50.07 79.02 C 50.32 77.82, 50.59 76.62, 50.87 75.43 C 51.15 74.24, 51.45 73.05, 51.76 71.87 C 52.07 70.69, 52.39 69.51, 52.73 68.34 C 53.07 67.17, 53.42 66.01, 53.78 64.85 C 54.14 63.70, 54.52 62.55, 54.91 61.41 C 55.30 60.26, 55.70 59.13, 56.12 58.00 C 56.53 56.87, 56.96 55.75, 57.41 54.64 C 57.85 53.53, 58.30 52.43, 58.77 51.34 C 59.24 50.24, 59.72 49.16, 60.22 48.08 C 60.71 47.01, 61.22 45.94, 61.74 44.89 C 62.25 43.83, 62.79 42.79, 63.33 41.75 C 63.88 40.72, 64.43 39.69, 65.00 38.68 C 65.57 37.67, 66.15 36.67, 66.75 35.68 C 67.34 34.69, 67.95 33.71, 68.56 32.75 C 69.18 31.78, 69.81 30.83, 70.45 29.89 C 71.10 28.95, 71.75 28.02, 72.41 27.11 C 73.08 26.19, 73.76 25.29, 74.44 24.40 C 75.13 23.52, 75.83 22.64, 76.54 21.78 C 77.25 20.93, 78.34 19.67, 78.70 19.25 Z" fill="#ffffff"></path></g>
</svg>